<?xml version="1.0" encoding="UTF-8"?>
<svg width="512" height="512" viewBox="0 0 512 512" fill="none" xmlns="http://www.w3.org/2000/svg">
  <!-- Background -->
  <rect width="512" height="512" rx="64" fill="#3b82f6"/>
  
  <!-- Main Icon Container -->
  <g transform="translate(128, 128)">
    <!-- Book Icon (Lucide style) -->
    <path d="M4 19.5A2.5 2.5 0 0 1 6.5 17H20" stroke="white" stroke-width="16" stroke-linecap="round" stroke-linejoin="round"/>
    <path d="M6.5 17H20v-16H6.5a2.5 2.5 0 0 0 0 5H20" stroke="white" stroke-width="16" stroke-linecap="round" stroke-linejoin="round"/>
    
    <!-- Brain/Mind Icon overlay (Lucide style) -->
    <g transform="translate(160, 80)">
      <path d="M12 5a3 3 0 1 0-5.997.125 4 4 0 0 0-2.526 5.77 4 4 0 0 0 .556 6.588A4 4 0 1 0 12 18Z" stroke="#fbbf24" stroke-width="12" fill="none" stroke-linecap="round" stroke-linejoin="round"/>
      <path d="M12 5a3 3 0 1 1 5.997.125 4 4 0 0 1 2.526 5.77 4 4 0 0 1-.556 6.588A4 4 0 1 1 12 18Z" stroke="#fbbf24" stroke-width="12" fill="none" stroke-linecap="round" stroke-linejoin="round"/>
      <path d="M15 13a4.5 4.5 0 0 1-3-4 4.5 4.5 0 0 1-3 4" stroke="#fbbf24" stroke-width="12" fill="none" stroke-linecap="round" stroke-linejoin="round"/>
      <path d="M17.5 11.5a4.5 4.5 0 0 1-2.5-4 4.5 4.5 0 0 1-2.5 4" stroke="#fbbf24" stroke-width="12" fill="none" stroke-linecap="round" stroke-linejoin="round"/>
    </g>
    
    <!-- Graduation Cap (Lucide style) -->
    <g transform="translate(80, 180)">
      <path d="M21.42 10.922a1 1 0 0 0-.019-1.838L12.83 5.18a2 2 0 0 0-1.66 0L2.6 9.08a1 1 0 0 0 0 1.832l8.57 3.908a2 2 0 0 0 1.66 0z" stroke="white" stroke-width="12" fill="none" stroke-linecap="round" stroke-linejoin="round"/>
      <path d="M22 10v6" stroke="white" stroke-width="12" stroke-linecap="round" stroke-linejoin="round"/>
      <path d="M6 12.5V16a6 3 0 0 0 12 0v-3.5" stroke="white" stroke-width="12" fill="none" stroke-linecap="round" stroke-linejoin="round"/>
    </g>
  </g>
  
  <!-- App Name -->
  <text x="256" y="450" font-family="system-ui, -apple-system, sans-serif" font-size="48" font-weight="600" text-anchor="middle" fill="white">PREP</text>
</svg> 